<svg width="143" height="23" viewBox="0 0 143 23" fill="none" xmlns="http://www.w3.org/2000/svg">
    <path
        d="M1.68 18V0.719999H11.604V2.484H3.444V8.484H10.164V10.236H3.444V18H1.68ZM14.0138 2.58V0.599999H15.7778V2.58H14.0138ZM14.0138 18V5.04H15.7778V18H14.0138ZM28.7353 18V11.388C28.7353 10.668 28.6673 10.008 28.5313 9.408C28.3953 8.8 28.1753 8.272 27.8713 7.824C27.5753 7.368 27.1873 7.016 26.7073 6.768C26.2353 6.52 25.6593 6.396 24.9793 6.396C24.3553 6.396 23.8033 6.504 23.3233 6.72C22.8513 6.936 22.4513 7.248 22.1233 7.656C21.8033 8.056 21.5593 8.544 21.3913 9.12C21.2233 9.696 21.1393 10.352 21.1393 11.088L19.8913 10.812C19.8913 9.484 20.1233 8.368 20.5873 7.464C21.0513 6.56 21.6913 5.876 22.5073 5.412C23.3233 4.948 24.2593 4.716 25.3153 4.716C26.0913 4.716 26.7673 4.836 27.3433 5.076C27.9273 5.316 28.4193 5.64 28.8193 6.048C29.2273 6.456 29.5553 6.924 29.8033 7.452C30.0513 7.972 30.2313 8.528 30.3433 9.12C30.4553 9.704 30.5113 10.288 30.5113 10.872V18H28.7353ZM19.3633 18V5.04H20.9593V8.232H21.1393V18H19.3633ZM37.3333 18.36C36.3573 18.36 35.5373 18.184 34.8733 17.832C34.2173 17.48 33.7253 17.012 33.3973 16.428C33.0693 15.844 32.9053 15.208 32.9053 14.52C32.9053 13.816 33.0453 13.216 33.3253 12.72C33.6133 12.216 34.0013 11.804 34.4893 11.484C34.9853 11.164 35.5573 10.92 36.2053 10.752C36.8613 10.592 37.5853 10.452 38.3773 10.332C39.1773 10.204 39.9573 10.096 40.7173 10.008C41.4853 9.912 42.1573 9.82 42.7333 9.732L42.1093 10.116C42.1333 8.836 41.8853 7.888 41.3653 7.272C40.8453 6.656 39.9413 6.348 38.6533 6.348C37.7653 6.348 37.0133 6.548 36.3973 6.948C35.7893 7.348 35.3613 7.98 35.1133 8.844L33.3973 8.34C33.6933 7.18 34.2893 6.28 35.1853 5.64C36.0813 5 37.2453 4.68 38.6773 4.68C39.8613 4.68 40.8653 4.904 41.6893 5.352C42.5213 5.792 43.1093 6.432 43.4533 7.272C43.6133 7.648 43.7173 8.068 43.7653 8.532C43.8133 8.996 43.8373 9.468 43.8373 9.948V18H42.2653V14.748L42.7213 14.94C42.2813 16.052 41.5973 16.9 40.6693 17.484C39.7413 18.068 38.6293 18.36 37.3333 18.36ZM37.5373 16.836C38.3613 16.836 39.0813 16.688 39.6973 16.392C40.3133 16.096 40.8093 15.692 41.1853 15.18C41.5613 14.66 41.8053 14.076 41.9173 13.428C42.0133 13.012 42.0653 12.556 42.0733 12.06C42.0813 11.556 42.0853 11.18 42.0853 10.932L42.7573 11.28C42.1573 11.36 41.5053 11.44 40.8013 11.52C40.1053 11.6 39.4173 11.692 38.7373 11.796C38.0653 11.9 37.4573 12.024 36.9133 12.168C36.5453 12.272 36.1893 12.42 35.8453 12.612C35.5013 12.796 35.2173 13.044 34.9933 13.356C34.7773 13.668 34.6693 14.056 34.6693 14.52C34.6693 14.896 34.7613 15.26 34.9453 15.612C35.1373 15.964 35.4413 16.256 35.8573 16.488C36.2813 16.72 36.8413 16.836 37.5373 16.836ZM56.3213 18V11.388C56.3213 10.668 56.2533 10.008 56.1173 9.408C55.9813 8.8 55.7613 8.272 55.4573 7.824C55.1613 7.368 54.7733 7.016 54.2933 6.768C53.8213 6.52 53.2453 6.396 52.5653 6.396C51.9413 6.396 51.3893 6.504 50.9093 6.72C50.4373 6.936 50.0373 7.248 49.7093 7.656C49.3893 8.056 49.1453 8.544 48.9773 9.12C48.8093 9.696 48.7253 10.352 48.7253 11.088L47.4773 10.812C47.4773 9.484 47.7093 8.368 48.1733 7.464C48.6373 6.56 49.2773 5.876 50.0933 5.412C50.9093 4.948 51.8453 4.716 52.9013 4.716C53.6773 4.716 54.3533 4.836 54.9293 5.076C55.5133 5.316 56.0053 5.64 56.4053 6.048C56.8133 6.456 57.1413 6.924 57.3893 7.452C57.6373 7.972 57.8173 8.528 57.9293 9.12C58.0413 9.704 58.0973 10.288 58.0973 10.872V18H56.3213ZM46.9493 18V5.04H48.5453V8.232H48.7253V18H46.9493ZM66.5169 18.36C65.2129 18.36 64.1089 18.068 63.2049 17.484C62.3009 16.9 61.6129 16.096 61.1409 15.072C60.6769 14.04 60.4369 12.856 60.4209 11.52C60.4369 10.16 60.6849 8.968 61.1649 7.944C61.6449 6.912 62.3369 6.112 63.2409 5.544C64.1449 4.968 65.2409 4.68 66.5289 4.68C67.8409 4.68 68.9809 5 69.9489 5.64C70.9249 6.28 71.5929 7.156 71.9529 8.268L70.2249 8.82C69.9209 8.044 69.4369 7.444 68.7729 7.02C68.1169 6.588 67.3649 6.372 66.5169 6.372C65.5649 6.372 64.7769 6.592 64.1529 7.032C63.5289 7.464 63.0649 8.068 62.7609 8.844C62.4569 9.62 62.3009 10.512 62.2929 11.52C62.3089 13.072 62.6689 14.32 63.3729 15.264C64.0769 16.2 65.1249 16.668 66.5169 16.668C67.3969 16.668 68.1449 16.468 68.7609 16.068C69.3849 15.66 69.8569 15.068 70.1769 14.292L71.9529 14.82C71.4729 15.972 70.7689 16.852 69.8409 17.46C68.9129 18.06 67.8049 18.36 66.5169 18.36ZM79.5624 18.36C78.2984 18.36 77.2024 18.08 76.2744 17.52C75.3544 16.96 74.6384 16.172 74.1264 15.156C73.6144 14.14 73.3584 12.948 73.3584 11.58C73.3584 10.164 73.6104 8.94 74.1144 7.908C74.6184 6.876 75.3264 6.08 76.2384 5.52C77.1584 4.96 78.2424 4.68 79.4904 4.68C80.7704 4.68 81.8624 4.976 82.7664 5.568C83.6704 6.152 84.3544 6.992 84.8184 8.088C85.2824 9.184 85.4944 10.492 85.4544 12.012H83.6544V11.388C83.6224 9.708 83.2584 8.44 82.5624 7.584C81.8744 6.728 80.8664 6.3 79.5384 6.3C78.1464 6.3 77.0784 6.752 76.3344 7.656C75.5984 8.56 75.2304 9.848 75.2304 11.52C75.2304 13.152 75.5984 14.42 76.3344 15.324C77.0784 16.22 78.1304 16.668 79.4904 16.668C80.4184 16.668 81.2264 16.456 81.9144 16.032C82.6104 15.6 83.1584 14.98 83.5584 14.172L85.2024 14.808C84.6904 15.936 83.9344 16.812 82.9344 17.436C81.9424 18.052 80.8184 18.36 79.5624 18.36ZM74.6064 12.012V10.536H84.5064V12.012H74.6064ZM87.9848 18V15.948H90.0368V18H87.9848ZM93.9825 18V0.719999H96.8745V18H93.9825ZM99.2691 18L104.717 0.719999H108.953L114.401 18H111.425L106.481 2.496H107.129L102.245 18H99.2691ZM102.305 14.256V11.556H111.377V14.256H102.305Z"
        fill="currentColor" />
    <path d="M139.054 16H125.946L132.5 4.10645L139.054 16Z" stroke="currentColor" stroke-width="3" />
</svg>